<svg width="148" height="40" viewBox="0 0 148 40" fill="none" xmlns="http://www.w3.org/2000/svg">
<path d="M71.9623 17.7496H69.6025L75.45 6.84917H78.4965L80.4568 17.7496H78.0678L77.5642 15.0932H73.3774L71.9623 17.7496ZM74.2139 13.2903H77.3645L76.632 8.58957L74.2139 13.2903Z" fill="white"/>
<path d="M83.6111 6.84917H85.8335L83.8982 17.7496H81.6758L83.6111 6.84917Z" fill="white"/>
<path d="M92.1638 6.84917H94.3863L92.7673 15.9634H97.0915L96.7752 17.7496H90.2285L92.1638 6.84917Z" fill="white"/>
<path d="M100.096 6.84917H106.643L106.327 8.63537H102.003L101.528 11.2918H105.503L105.186 13.078H101.212L100.7 15.9634H105.161L104.841 17.7496H98.1611L100.096 6.84917Z" fill="white"/>
<path d="M107.871 17.7496H105.511L111.358 6.84917H114.405L116.365 17.7496H113.976L113.472 15.0932H109.286L107.871 17.7496ZM110.126 13.2903H113.277L112.544 8.58957L110.126 13.2903Z" fill="white"/>
<path d="M137.568 14.5269C137.472 15.0765 137.272 15.5636 136.981 15.9925C136.686 16.4213 136.319 16.7752 135.878 17.0625C135.437 17.3456 134.938 17.5663 134.38 17.712C133.822 17.8578 133.231 17.9327 132.611 17.9327C131.991 17.9327 131.433 17.8578 130.93 17.712C130.426 17.5663 130.01 17.3498 129.677 17.0625C129.344 16.7794 129.103 16.4213 128.961 15.9925C128.82 15.5636 128.795 15.0765 128.894 14.5269L130.26 6.84912H132.482L131.167 14.2521C131.059 14.9224 131.167 15.4095 131.5 15.7093C131.833 16.0091 132.303 16.1548 132.915 16.1465C133.219 16.1465 133.506 16.109 133.772 16.0383C134.039 15.9675 134.284 15.8551 134.509 15.701C134.734 15.5469 134.925 15.3513 135.079 15.1056C135.233 14.8599 135.341 14.5768 135.4 14.2521L136.715 6.84912H138.937L137.572 14.5269H137.568Z" fill="white"/>
<path d="M126.907 9.08927C126.636 8.90607 126.282 8.75202 125.845 8.63127C125.408 8.51053 124.975 8.44807 124.538 8.44807C123.989 8.44807 123.473 8.53968 122.986 8.71455C122.499 8.89359 122.062 9.14757 121.683 9.48482C121.305 9.82207 120.984 10.2301 120.718 10.7131C120.456 11.1961 120.268 11.7498 120.156 12.3702C120.064 12.8907 120.056 13.3778 120.131 13.8358C120.206 14.2938 120.364 14.6935 120.601 15.0349C120.838 15.3764 121.163 15.647 121.571 15.8427C121.975 16.0425 122.466 16.1383 123.032 16.1383C123.598 16.1383 124.043 16.0675 124.393 15.926L124.876 13.2071H123.032L123.348 11.4209H127.398L126.378 17.1626C125.75 17.4457 125.113 17.6455 124.468 17.758C123.823 17.8704 123.182 17.9245 122.541 17.9245C121.688 17.9245 120.943 17.7871 120.302 17.5123C119.661 17.2375 119.14 16.8544 118.741 16.359C118.341 15.8677 118.071 15.2764 117.929 14.5894C117.788 13.9024 117.788 13.1446 117.938 12.3203C118.083 11.4959 118.35 10.7381 118.733 10.0469C119.115 9.35575 119.598 8.75619 120.185 8.25239C120.772 7.74859 121.459 7.35721 122.245 7.07824C123.032 6.79928 123.893 6.65771 124.838 6.65771C125.375 6.65771 125.904 6.71184 126.424 6.8201C126.944 6.92835 127.414 7.08241 127.835 7.28642L126.907 9.08927Z" fill="white"/>
<path d="M141.366 6.84501H147.909L147.592 8.63121H143.268L142.798 11.2876H146.773L146.452 13.0738H142.482L141.97 15.9592H146.427L146.111 17.7454H139.427L141.366 6.84501Z" fill="white"/>
<path d="M102.103 30.432C102.065 30.382 102.019 30.3445 101.965 30.3154C101.911 30.2863 101.845 30.2738 101.774 30.2738C101.711 30.2738 101.657 30.2863 101.603 30.3112C101.549 30.3362 101.503 30.3779 101.462 30.432V29.8865H101.179V31.3438H101.453V31.2272C101.491 31.2772 101.537 31.3147 101.595 31.3355C101.649 31.3563 101.707 31.3688 101.77 31.3688C101.84 31.3688 101.903 31.3563 101.961 31.3272C102.019 31.298 102.065 31.2605 102.103 31.2106C102.14 31.1606 102.169 31.1023 102.19 31.0357C102.211 30.9691 102.219 30.8983 102.219 30.8192C102.219 30.7401 102.211 30.6693 102.19 30.6027C102.169 30.5361 102.144 30.4778 102.107 30.4278M101.92 30.9524C101.911 30.9941 101.895 31.0274 101.878 31.0607C101.857 31.0898 101.836 31.1148 101.803 31.1315C101.774 31.1481 101.736 31.1564 101.695 31.1564C101.653 31.1564 101.616 31.1481 101.582 31.1315C101.549 31.1148 101.52 31.0898 101.499 31.0607C101.478 31.0315 101.462 30.9941 101.449 30.9524C101.437 30.9108 101.433 30.865 101.433 30.8192C101.433 30.7734 101.437 30.7234 101.449 30.686C101.462 30.6443 101.478 30.611 101.499 30.5777C101.52 30.5486 101.549 30.5236 101.582 30.5069C101.616 30.4903 101.653 30.4819 101.691 30.4819C101.728 30.4819 101.766 30.4903 101.799 30.5069C101.828 30.5236 101.853 30.5486 101.874 30.5777C101.895 30.6068 101.907 30.6443 101.915 30.686C101.924 30.7276 101.928 30.7692 101.928 30.8192C101.928 30.8692 101.924 30.9108 101.915 30.9524" fill="white"/>
<path d="M102.993 30.2946L102.74 30.9982H102.735L102.482 30.2946H102.178L102.59 31.3188L102.419 31.731H102.719L103.289 30.2946H102.993Z" fill="white"/>
<path d="M103.755 32.9676V32.2765H106.26C106.552 32.2765 106.664 32.2057 106.664 32.0183C106.647 31.8393 106.531 31.7976 106.223 31.781L104.87 31.6852C103.934 31.6228 103.709 31.348 103.709 30.8109C103.709 30.2738 103.967 29.8907 104.874 29.8907H107.184V30.5819H104.829C104.546 30.5777 104.408 30.6443 104.408 30.8358C104.408 31.0274 104.558 31.0524 104.866 31.0815L106.219 31.1731C107.134 31.2481 107.359 31.4979 107.363 32.0516C107.363 32.6012 107.118 32.9718 106.21 32.9718H103.751L103.755 32.9676Z" fill="white"/>
<path d="M109.34 32.9676C108.254 32.9676 107.788 32.4805 107.788 31.4229C107.788 30.3654 108.229 29.8824 109.303 29.8824H111.255V30.5777H109.357C108.716 30.5777 108.496 30.7109 108.487 31.4229C108.487 31.7768 108.541 31.9892 108.691 32.1141C108.837 32.239 109.024 32.2723 109.37 32.2723H111.259V32.9676H109.345H109.34Z" fill="white"/>
<path d="M116.656 29.8824H115.953V32.9676H116.656V29.8824Z" fill="white"/>
<path d="M113.76 29.8824C114.093 29.8824 114.305 29.9407 114.459 30.2529C114.7 30.7359 115.558 32.9593 115.558 32.9593H114.8C114.8 32.9593 114.184 31.323 113.93 30.7442C113.86 30.586 113.781 30.5486 113.585 30.5486H113.535C113.339 30.5486 113.256 30.5902 113.185 30.7442C112.932 31.3188 112.328 32.9635 112.328 32.9635H111.566C111.566 32.9635 112.415 30.7359 112.657 30.2529C112.811 29.9407 113.023 29.8824 113.352 29.8824H113.764H113.76Z" fill="white"/>
<path d="M103.755 32.9676V32.2765H106.26C106.552 32.2765 106.664 32.2057 106.664 32.0183C106.647 31.8393 106.531 31.7976 106.223 31.781L104.87 31.6852C103.934 31.6228 103.709 31.348 103.709 30.8109C103.709 30.2738 103.967 29.8907 104.874 29.8907H107.184V30.5819H104.829C104.546 30.5777 104.408 30.6443 104.408 30.8358C104.408 31.0274 104.558 31.0524 104.866 31.0815L106.219 31.1731C107.134 31.2481 107.359 31.4979 107.363 32.0516C107.363 32.6012 107.118 32.9718 106.21 32.9718H103.751L103.755 32.9676Z" fill="white"/>
<path d="M109.34 32.9676C108.254 32.9676 107.788 32.4805 107.788 31.4229C107.788 30.3654 108.229 29.8824 109.303 29.8824H111.255V30.5777H109.357C108.716 30.5777 108.496 30.7109 108.487 31.4229C108.487 31.7768 108.541 31.9892 108.691 32.1141C108.837 32.239 109.024 32.2723 109.37 32.2723H111.259V32.9676H109.345H109.34Z" fill="white"/>
<path d="M116.656 29.8824H115.953V32.9676H116.656V29.8824Z" fill="white"/>
<path d="M113.76 29.8824C114.093 29.8824 114.305 29.9407 114.459 30.2529C114.7 30.7359 115.558 32.9593 115.558 32.9593H114.8C114.8 32.9593 114.184 31.323 113.93 30.7442C113.86 30.586 113.781 30.5486 113.585 30.5486H113.535C113.339 30.5486 113.256 30.5902 113.185 30.7442C112.932 31.3188 112.328 32.9635 112.328 32.9635H111.566C111.566 32.9635 112.415 30.7359 112.657 30.2529C112.811 29.9407 113.023 29.8824 113.352 29.8824H113.764H113.76Z" fill="white"/>
<mask id="mask0_648_739" style="mask-type:luminance" maskUnits="userSpaceOnUse" x="0" y="0" width="61" height="40">
<path d="M30.4721 0C30.006 0 29.5981 0.333091 29.5107 0.79109L27.6045 10.6589C27.6045 10.6589 27.6045 10.7005 27.6004 10.7213C27.5796 10.7213 27.5588 10.713 27.5379 10.713H17.0167C16.5464 10.713 16.1468 11.0461 16.0553 11.5041L14.1491 21.3678C14.145 21.3886 14.1491 21.4094 14.145 21.4344C14.1242 21.4344 14.1033 21.426 14.0825 21.426H3.56542C3.09513 21.426 2.69143 21.7591 2.60403 22.2171L0.697878 32.0808C0.643773 32.3681 0.718688 32.6637 0.901811 32.8927C1.0891 33.1175 1.36378 33.2466 1.65511 33.2466H12.1764C12.6425 33.2466 13.0462 32.9135 13.1378 32.4555L15.0439 22.5877C15.0439 22.5669 15.0439 22.5461 15.0481 22.5252C15.0689 22.5252 15.0897 22.5336 15.1105 22.5336H25.1199L24.0503 28.067C24.0003 28.321 24.0669 28.575 24.2292 28.7748C24.3916 28.9747 24.6329 29.0871 24.8868 29.0871H31.242C31.6499 29.0871 32.0037 28.7957 32.0827 28.396L33.2314 22.4461C33.2814 22.1963 33.2148 21.9382 33.0525 21.7383C32.8901 21.5426 32.6488 21.426 32.3949 21.426H26.6515L28.4952 11.8747C28.4952 11.8747 28.4952 11.833 28.4993 11.8122C28.5202 11.8122 28.541 11.8205 28.5618 11.8205H38.7584L36.9147 21.3719C36.8606 21.6592 36.9355 21.9548 37.1186 22.1797C37.3059 22.4045 37.5806 22.5377 37.8719 22.5377H48.0727L46.2249 32.0849C46.2249 32.1058 46.2249 32.1266 46.2207 32.1516C46.1999 32.1516 46.1791 32.1432 46.1583 32.1432H39.8488C39.3827 32.1432 38.9748 32.4763 38.8874 32.9343L37.7471 38.8383C37.693 39.1256 37.7679 39.4213 37.9552 39.6461C38.1425 39.8709 38.4171 40 38.7085 40H45.0179C45.484 40 45.8919 39.6669 45.9793 39.2089L47.1197 33.3049C47.1238 33.2841 47.1197 33.2632 47.1238 33.2424C47.1446 33.2424 47.1655 33.2508 47.1863 33.2508H57.7075C58.1737 33.2508 58.5815 32.9177 58.6689 32.4597L60.5751 22.5919C60.6292 22.3046 60.5543 22.009 60.3711 21.7841C60.1839 21.5593 59.9092 21.426 59.6137 21.426H49.4129L51.2566 11.8747C51.2608 11.8539 51.2566 11.833 51.2608 11.8122C51.2816 11.8122 51.3024 11.8205 51.3232 11.8205H58.1861C58.6523 11.8205 59.0602 11.4875 59.1475 11.0295L60.3878 4.60498C60.4419 4.31769 60.367 4.02207 60.1839 3.79723C59.9966 3.57239 59.7219 3.44332 59.4306 3.44332H52.5676C52.0973 3.44332 51.6936 3.77641 51.6062 4.23441L50.366 10.6589C50.366 10.6589 50.3659 10.7005 50.3618 10.7213C50.341 10.7213 50.3202 10.713 50.2994 10.713H40.0986L41.9464 1.16582C42.0005 0.878526 41.9256 0.582909 41.7425 0.358072C41.5552 0.133236 41.2805 0 40.9892 0H30.4679H30.4721Z" fill="white"/>
</mask>
<g mask="url(#mask0_648_739)">
<path d="M50.28 -22.6923L-14.4736 6.89828L10.996 62.6805L75.7496 33.0899L50.28 -22.6923Z" fill="url(#paint0_linear_648_739)"/>
</g>
<path d="M71.4708 28.0795C71.3543 28.0795 71.2586 28.117 71.1837 28.1878C71.1087 28.2627 71.0713 28.3543 71.0713 28.4709C71.0713 28.5875 71.1087 28.6833 71.1837 28.7582C71.2586 28.8331 71.3543 28.8706 71.4708 28.8706C71.5874 28.8706 71.6789 28.8331 71.7497 28.7582C71.8204 28.6833 71.8579 28.5875 71.8579 28.4709C71.8579 28.3543 71.8204 28.2586 71.7497 28.1878C71.6789 28.1128 71.5832 28.0795 71.4708 28.0795Z" fill="white"/>
<path d="M72.4777 28.0795C72.3611 28.0795 72.2654 28.117 72.1905 28.1878C72.1156 28.2627 72.0781 28.3543 72.0781 28.4709C72.0781 28.5875 72.1156 28.6833 72.1905 28.7582C72.2654 28.8331 72.3611 28.8706 72.4777 28.8706C72.5942 28.8706 72.6858 28.8331 72.7565 28.7582C72.8273 28.6833 72.8647 28.5875 72.8647 28.4709C72.8647 28.3543 72.8273 28.2586 72.7565 28.1878C72.6858 28.1128 72.59 28.0795 72.4777 28.0795Z" fill="white"/>
<path d="M81.3017 25.2857C81.1727 25.2358 81.0645 25.1691 80.9771 25.09C80.8939 25.0068 80.8314 24.911 80.7857 24.8027C80.744 24.6945 80.7232 24.5779 80.7232 24.453C80.7232 24.3114 80.7482 24.1865 80.7981 24.0783C80.8481 23.97 80.9188 23.8826 81.0104 23.8118C81.102 23.741 81.206 23.6869 81.3184 23.6536C81.4349 23.6203 81.5598 23.6036 81.6929 23.6036C81.8345 23.6078 81.9635 23.6203 82.0758 23.6369C82.1882 23.6536 82.2756 23.6744 82.338 23.6911L82.4587 23.1248C82.3422 23.0832 82.2049 23.054 82.0467 23.029C81.8844 23.0041 81.7346 22.9916 81.5931 22.9916C81.36 22.9916 81.1477 23.0249 80.9521 23.0832C80.7565 23.1456 80.5817 23.2414 80.4319 23.3663C80.2821 23.4912 80.1655 23.6453 80.0865 23.8243C80.0074 24.0033 79.9658 24.2073 79.9658 24.428C79.9658 24.5862 79.9949 24.7486 80.049 24.9068C80.1031 25.0651 80.1905 25.2149 80.307 25.3523H74.6136H73.8519C73.8061 25.3523 73.7562 25.3523 73.6979 25.3523C73.6397 25.3523 73.5814 25.344 73.5231 25.3399C73.4649 25.3315 73.4066 25.3274 73.3483 25.3149C73.2942 25.3065 73.2443 25.2941 73.2068 25.2816L72.3412 25.0234L72.1789 25.6188L72.9863 25.877C73.2485 25.9644 73.4274 26.0518 73.5231 26.1309C73.6189 26.2101 73.6646 26.2975 73.6646 26.3891C73.6646 26.564 73.5315 26.7097 73.2609 26.8263C72.9904 26.9429 72.6034 27.0011 72.0914 27.0011C71.5795 27.0011 71.1966 26.9179 70.9178 26.7472C70.6389 26.5765 70.4974 26.3266 70.4974 25.9935C70.4974 25.8478 70.5224 25.6771 70.5682 25.4897C70.614 25.3024 70.6764 25.115 70.7596 24.9277L70.1062 24.6862C69.9814 24.9277 69.8898 25.165 69.8315 25.3981C69.7733 25.6355 69.7441 25.8312 69.7441 25.9935C69.7441 26.285 69.7982 26.5348 69.9106 26.7388C70.023 26.9429 70.1811 27.1136 70.3892 27.2426C70.5973 27.3717 70.8429 27.4675 71.1342 27.5258C71.4255 27.5841 71.7543 27.6132 72.1247 27.6132C72.4952 27.6132 72.8198 27.5799 73.1028 27.5174C73.3858 27.455 73.6272 27.3675 73.8145 27.2593C74.0059 27.151 74.1516 27.0178 74.2473 26.8637C74.3472 26.7097 74.393 26.5473 74.393 26.3724C74.393 26.2975 74.3722 26.2184 74.3347 26.1434C74.2931 26.0643 74.2432 25.9977 74.1807 25.9477H82.5878V25.3523H81.7595C81.5764 25.3523 81.4224 25.3274 81.2892 25.2774" fill="white"/>
<path d="M89.837 22.3878C89.9536 22.3878 90.0451 22.3504 90.1159 22.2754C90.1866 22.2005 90.2241 22.1047 90.2241 21.9881C90.2241 21.8716 90.1908 21.7758 90.1159 21.705C90.0451 21.6301 89.9494 21.5968 89.837 21.5968C89.7247 21.5968 89.6248 21.6342 89.5499 21.705C89.475 21.78 89.4375 21.8716 89.4375 21.9881C89.4375 22.1047 89.475 22.2005 89.5499 22.2754C89.6248 22.3504 89.7205 22.3878 89.837 22.3878Z" fill="white"/>
<path d="M101.016 23.4412C100.879 23.3038 100.704 23.1956 100.488 23.1123C100.271 23.029 100.005 22.9874 99.6888 22.9874C99.4225 22.9874 99.1394 23.0249 98.8398 23.104C98.5401 23.1831 98.2155 23.308 97.8701 23.487V23.0332H97.1417V25.3565H96.48C96.2927 25.3565 96.1429 25.3024 96.0222 25.1941C95.9057 25.0859 95.8432 24.9443 95.8391 24.7611V24.5071C95.8391 24.3031 95.8099 24.1074 95.7475 23.9242C95.6892 23.741 95.5894 23.5786 95.4562 23.4371C95.323 23.2955 95.1399 23.1873 94.9193 23.1081C94.6987 23.029 94.4365 22.9874 94.1327 22.9874C93.8622 22.9874 93.575 23.0249 93.2753 23.104C92.9757 23.1831 92.6552 23.308 92.3139 23.487V21.0471H91.5815V25.3565H90.928C90.6908 25.3565 90.5118 25.2982 90.3828 25.1858C90.2538 25.0734 90.1914 24.9152 90.1914 24.7153V23.0332H89.463V24.6487C89.463 24.9027 89.4048 25.0817 89.2924 25.1941C89.18 25.3024 88.9844 25.3565 88.7097 25.3565H84.7643C84.6852 25.3565 84.6061 25.3482 84.5312 25.3315C84.4563 25.3149 84.3897 25.2816 84.3273 25.2399C84.269 25.1941 84.2191 25.1317 84.1858 25.0484C84.1483 24.9651 84.1317 24.8652 84.1317 24.7486V21.0513H83.4033V24.9318C83.4033 25.1317 83.4408 25.2982 83.5199 25.4356C83.5989 25.573 83.703 25.6771 83.8362 25.7521C83.9693 25.827 84.1233 25.8811 84.2981 25.9103C84.4563 25.9353 84.6311 25.9477 84.8142 25.9477C84.8267 25.9477 84.835 25.9519 84.8475 25.9519H88.793C88.793 25.9519 88.7971 25.9519 88.8013 25.9519C89.1093 25.9519 89.359 25.9144 89.5546 25.8437C89.7502 25.7729 89.9 25.6605 89.9999 25.5106C90.054 25.5897 90.1165 25.6605 90.1914 25.7187C90.2663 25.777 90.3495 25.8228 90.4411 25.8561C90.5327 25.8895 90.6284 25.9144 90.7283 25.9311C90.8157 25.9436 90.8989 25.9477 90.978 25.9519C90.9863 25.9519 90.9946 25.9519 91.0029 25.9519H94.5988C94.861 25.9519 95.0774 25.9144 95.2481 25.8395C95.4187 25.7645 95.5519 25.6563 95.6518 25.5106C95.7517 25.6605 95.889 25.7729 96.0513 25.8437C96.1928 25.9061 96.3468 25.9353 96.5008 25.9436C96.5216 25.9436 96.5383 25.9519 96.5549 25.9519H100.151C100.584 25.9519 100.896 25.8561 101.096 25.6646C101.291 25.4731 101.391 25.1691 101.391 24.7528V24.5113C101.391 24.3073 101.362 24.1116 101.299 23.9284C101.241 23.7452 101.141 23.5828 101.008 23.4454M94.9692 25.1816C94.8693 25.2982 94.6862 25.3565 94.424 25.3565H92.3098V24.1241C92.5886 23.9534 92.8716 23.8285 93.1546 23.7369C93.4376 23.6494 93.7207 23.6036 94.0037 23.6036C94.1951 23.6036 94.3616 23.6286 94.4989 23.6786C94.6404 23.7285 94.7528 23.7993 94.8444 23.8909C94.9359 23.9825 95.0025 24.0908 95.0441 24.2157C95.0858 24.3406 95.1066 24.4821 95.1066 24.632C95.1107 24.8777 95.065 25.0567 94.9651 25.1733M100.521 25.1816C100.425 25.2982 100.247 25.3565 99.9885 25.3565H97.8701V24.1241C98.1364 23.9617 98.407 23.8368 98.6858 23.7452C98.9647 23.6536 99.2601 23.6078 99.5681 23.6036C99.7596 23.6036 99.9219 23.6286 100.063 23.6786C100.201 23.7285 100.317 23.7993 100.405 23.8909C100.496 23.9825 100.563 24.0949 100.604 24.2198C100.646 24.3447 100.667 24.4863 100.667 24.6362C100.667 24.886 100.617 25.0692 100.521 25.1816Z" fill="white"/>
<path d="M104.811 24.5363C104.816 24.8402 104.766 25.0526 104.653 25.1733C104.545 25.2941 104.35 25.3565 104.071 25.3565H101.998V25.9519H104.312C104.741 25.9519 105.049 25.8603 105.244 25.6729C105.44 25.4856 105.536 25.19 105.536 24.7861V21.0555H104.807V24.5363H104.811Z" fill="white"/>
<path d="M103.696 21.7966H102.968V25.0442H103.696V21.7966Z" fill="white"/>
<path d="M107.267 21.0471H106.539V25.9477H107.267V21.0471Z" fill="white"/>
<path d="M111.287 25.2982C111.167 25.2524 111.071 25.19 111 25.115C110.93 25.0401 110.88 24.9568 110.85 24.8694C110.821 24.7819 110.809 24.6945 110.809 24.6112C110.809 24.403 110.875 24.2365 111.004 24.1074C111.138 23.9825 111.312 23.9159 111.541 23.9159C111.662 23.9159 111.77 23.9242 111.87 23.945C111.966 23.9659 112.041 23.9825 112.091 23.995C112.091 23.9867 112.095 23.9617 112.103 23.9159C112.112 23.8701 112.124 23.8201 112.136 23.7618C112.149 23.7035 112.161 23.6494 112.174 23.5953C112.186 23.5412 112.195 23.4995 112.203 23.4704C112.107 23.4329 111.991 23.4079 111.853 23.3871C111.716 23.3663 111.595 23.358 111.483 23.358C111.258 23.358 111.059 23.3871 110.888 23.4496C110.717 23.512 110.576 23.5995 110.463 23.7077C110.347 23.8201 110.264 23.9492 110.205 24.0991C110.151 24.249 110.122 24.4072 110.122 24.5779C110.122 24.7278 110.147 24.8694 110.193 25.0026C110.239 25.1358 110.309 25.2566 110.397 25.369H109.835V25.9477H112.34V25.369H111.733C111.554 25.369 111.404 25.344 111.287 25.2982Z" fill="white"/>
<path d="M122.504 23.4038C122.383 23.2872 122.225 23.1997 122.029 23.1331C121.834 23.0707 121.605 23.0374 121.338 23.0374H120.693L122.133 21.5093L121.638 21.0638L119.79 23.0332V23.6411H121.139C121.488 23.6411 121.742 23.7119 121.896 23.8493C122.05 23.9908 122.125 24.2032 122.125 24.4863V24.6487C122.125 24.9027 122.075 25.0859 121.971 25.1941C121.867 25.3065 121.688 25.3607 121.426 25.3607H114.534C114.455 25.3607 114.376 25.3523 114.301 25.3357C114.226 25.319 114.159 25.2857 114.097 25.2441C114.039 25.1983 113.989 25.1358 113.955 25.0526C113.922 24.9693 113.901 24.8694 113.901 24.7528V21.0555H113.173V24.936C113.173 25.1358 113.21 25.3024 113.289 25.4398C113.368 25.5772 113.473 25.6813 113.606 25.7562C113.739 25.8312 113.893 25.8853 114.068 25.9144C114.226 25.9394 114.401 25.9519 114.584 25.9519C114.596 25.9519 114.605 25.9561 114.621 25.9561H115.608H116.594H119.553H119.561H121.663C122.079 25.9561 122.383 25.8645 122.575 25.6813C122.766 25.4981 122.858 25.19 122.858 24.7569V24.3447C122.858 24.1532 122.828 23.9783 122.77 23.8201C122.712 23.6619 122.62 23.5245 122.5 23.4121" fill="white"/>
<path d="M124.46 22.3878C124.577 22.3878 124.668 22.3504 124.739 22.2754C124.81 22.2005 124.847 22.1047 124.847 21.9881C124.847 21.8716 124.814 21.7758 124.739 21.705C124.668 21.6301 124.572 21.5968 124.46 21.5968C124.348 21.5968 124.248 21.6342 124.173 21.705C124.098 21.78 124.061 21.8716 124.061 21.9881C124.061 22.1047 124.098 22.2005 124.173 22.2754C124.248 22.3504 124.344 22.3878 124.46 22.3878Z" fill="white"/>
<path d="M129.541 24.6487C129.541 24.8985 129.487 25.0776 129.375 25.19C129.263 25.3024 129.067 25.3565 128.788 25.3565H126.815C126.628 25.3565 126.478 25.3024 126.358 25.19C126.241 25.0776 126.183 24.9318 126.183 24.7486V24.3364C126.183 24.1449 126.154 23.97 126.091 23.8118C126.033 23.6536 125.937 23.5162 125.812 23.4038C125.688 23.2872 125.525 23.1998 125.325 23.1331C125.126 23.0707 124.893 23.0374 124.622 23.0374H123.881V23.6369H124.435C124.63 23.6369 124.793 23.6578 124.926 23.6952C125.059 23.7369 125.163 23.791 125.238 23.8659C125.317 23.9409 125.371 24.0283 125.405 24.1282C125.438 24.2323 125.454 24.3489 125.454 24.4821V24.6445C125.454 24.8943 125.405 25.0734 125.309 25.1858C125.213 25.2982 125.026 25.3565 124.755 25.3607H123.461V25.9561H124.993C125.251 25.9561 125.463 25.9228 125.625 25.8561C125.787 25.7895 125.916 25.6813 126.012 25.5355C126.1 25.6771 126.229 25.7854 126.399 25.852C126.541 25.9103 126.682 25.9394 126.828 25.9477C126.853 25.9477 126.87 25.9561 126.899 25.9561H128.871H128.88C129.354 25.9561 129.704 25.8686 129.924 25.6771C130.145 25.4856 130.257 25.19 130.257 24.7819V21.0513H129.529V24.6529L129.541 24.6487Z" fill="white"/>
<path d="M132.01 21.0471H131.281V25.9477H132.01V21.0471Z" fill="white"/>
<path d="M137.241 27.1427C137.125 27.1427 137.029 27.1802 136.954 27.251C136.879 27.3259 136.842 27.4175 136.842 27.5341C136.842 27.6507 136.879 27.7464 136.954 27.8214C137.029 27.8963 137.125 27.9338 137.241 27.9338C137.358 27.9338 137.449 27.8963 137.52 27.8214C137.591 27.7464 137.628 27.6507 137.628 27.5341C137.628 27.4175 137.595 27.3217 137.52 27.251C137.449 27.176 137.354 27.1427 137.241 27.1427Z" fill="white"/>
<path d="M136.234 27.1427C136.118 27.1427 136.022 27.1802 135.947 27.251C135.872 27.3259 135.835 27.4175 135.835 27.5341C135.835 27.6507 135.872 27.7464 135.947 27.8214C136.022 27.8963 136.118 27.9338 136.234 27.9338C136.351 27.9338 136.443 27.8963 136.513 27.8214C136.584 27.7464 136.622 27.6507 136.622 27.5341C136.622 27.4175 136.588 27.3217 136.513 27.251C136.443 27.176 136.347 27.1427 136.234 27.1427Z" fill="white"/>
<path d="M138.756 24.7028C138.66 24.6237 138.552 24.5488 138.431 24.478C138.315 24.4072 138.202 24.3447 138.094 24.2865C138.011 24.2407 137.928 24.1949 137.849 24.1491C137.77 24.1033 137.699 24.0533 137.632 24.0075C137.566 23.9575 137.516 23.9034 137.478 23.8451C137.441 23.7868 137.42 23.7202 137.42 23.6494C137.42 23.4579 137.499 23.3122 137.661 23.2164C137.824 23.1206 138.032 23.0707 138.29 23.0707C138.406 23.0707 138.519 23.079 138.631 23.0998C138.743 23.1206 138.827 23.1373 138.885 23.1581L139.006 22.6168C138.952 22.6002 138.889 22.5835 138.823 22.5669C138.752 22.5502 138.685 22.5377 138.614 22.5252C138.544 22.5128 138.473 22.5044 138.406 22.5003C138.336 22.4919 138.277 22.4919 138.223 22.4919C137.986 22.4919 137.77 22.5252 137.57 22.5877C137.37 22.6502 137.208 22.7418 137.079 22.85C136.954 22.9624 136.858 23.0873 136.796 23.2331C136.733 23.3788 136.704 23.5287 136.704 23.6911C136.704 23.8201 136.725 23.9325 136.762 24.0325C136.804 24.1282 136.858 24.2198 136.933 24.2989C137.008 24.3781 137.095 24.453 137.195 24.5196C137.299 24.5862 137.412 24.6529 137.537 24.7195C137.803 24.861 138.007 24.9859 138.144 25.09C138.282 25.1941 138.352 25.3024 138.352 25.4148C138.352 25.4897 138.319 25.5605 138.248 25.6313C138.177 25.6979 138.086 25.7604 137.965 25.8103C137.845 25.8603 137.686 25.9061 137.495 25.9436C137.303 25.9811 137.07 26.0019 136.804 26.0019C136.571 26.0019 136.359 25.9852 136.167 25.9477C135.976 25.9103 135.809 25.8561 135.668 25.7729C135.526 25.6938 135.418 25.5897 135.343 25.4606C135.268 25.3315 135.227 25.1733 135.227 24.9859C135.227 24.8152 135.252 24.6445 135.302 24.4655C135.352 24.2865 135.414 24.1033 135.493 23.9117L134.84 23.6702C134.711 23.9201 134.619 24.1574 134.561 24.3905C134.507 24.6237 134.478 24.8194 134.478 24.9859C134.478 25.2774 134.532 25.5314 134.64 25.7354C134.748 25.9436 134.906 26.1101 135.106 26.2392C135.31 26.3683 135.555 26.464 135.847 26.5223C136.138 26.5806 136.467 26.6139 136.837 26.6139C137.208 26.6139 137.537 26.5848 137.807 26.5223C138.082 26.464 138.315 26.3766 138.51 26.26C138.706 26.1434 138.852 26.006 138.947 25.852C139.043 25.6938 139.089 25.5189 139.089 25.3274C139.089 25.1983 139.056 25.0817 138.997 24.9818C138.935 24.8777 138.856 24.7903 138.756 24.707" fill="white"/>
<path d="M140.155 25.777C140.155 26.0227 140.118 26.2017 140.039 26.3225C139.96 26.4391 139.818 26.5015 139.614 26.5057C139.527 26.5057 139.427 26.4932 139.314 26.4724L139.219 27.0594C139.281 27.0761 139.36 27.0927 139.452 27.1011C139.543 27.1094 139.639 27.1177 139.739 27.1177C139.914 27.1177 140.068 27.0927 140.209 27.0469C140.351 27.0011 140.467 26.9262 140.567 26.8221C140.667 26.718 140.746 26.5848 140.796 26.4182C140.85 26.2517 140.875 26.0518 140.875 25.8145V23.0332H140.147V25.7729L140.155 25.777Z" fill="white"/>
<path d="M144.217 23.3496C144.096 23.2331 143.946 23.1456 143.776 23.0832C143.605 23.0207 143.418 22.9916 143.218 22.9916C142.977 22.9916 142.764 23.0332 142.577 23.1165C142.39 23.1998 142.232 23.3122 142.098 23.4579C141.969 23.5995 141.87 23.766 141.803 23.9575C141.736 24.1491 141.703 24.3531 141.703 24.5696C141.703 25.0026 141.836 25.3399 142.103 25.5813C142.369 25.827 142.735 25.9477 143.201 25.9477C143.355 25.9477 143.484 25.9394 143.584 25.9186C143.684 25.8978 143.776 25.8728 143.863 25.8437C143.863 26.0935 143.792 26.2725 143.647 26.3808C143.501 26.489 143.297 26.5431 143.031 26.5431C142.902 26.5431 142.777 26.5307 142.652 26.5098C142.527 26.489 142.415 26.464 142.311 26.4432L142.203 27.0095C142.332 27.0428 142.473 27.0678 142.627 27.0844C142.781 27.1052 142.923 27.1136 143.056 27.1136C143.58 27.1136 143.967 26.9928 144.221 26.7513C144.475 26.5098 144.6 26.1518 144.6 25.6729V24.3656C144.6 24.1491 144.567 23.9534 144.496 23.7785C144.425 23.6036 144.329 23.4621 144.209 23.3455M143.876 25.2441C143.809 25.2691 143.73 25.2982 143.643 25.319C143.555 25.344 143.439 25.3565 143.301 25.3565C143.193 25.3565 143.089 25.344 142.989 25.3149C142.889 25.2899 142.802 25.2441 142.723 25.1775C142.644 25.1109 142.581 25.0234 142.531 24.9152C142.481 24.8027 142.456 24.6695 142.456 24.5071C142.456 24.3198 142.481 24.1699 142.531 24.0491C142.581 23.9325 142.644 23.841 142.719 23.7743C142.794 23.7077 142.873 23.6661 142.956 23.6369C143.039 23.6078 143.118 23.5953 143.189 23.5953C143.318 23.5953 143.426 23.6203 143.514 23.6661C143.601 23.7119 143.672 23.7743 143.722 23.8576C143.776 23.9367 143.813 24.0325 143.834 24.1449C143.855 24.2573 143.867 24.3739 143.867 24.4988V25.2399L143.876 25.2441Z" fill="white"/>
<path d="M147.908 23.8118C147.846 23.6536 147.75 23.5162 147.625 23.3996C147.5 23.283 147.338 23.1914 147.138 23.129C146.943 23.0665 146.705 23.0374 146.435 23.0374H145.694V23.6369H146.252C146.443 23.6369 146.606 23.6577 146.735 23.6952C146.864 23.7369 146.972 23.791 147.047 23.8659C147.126 23.9409 147.18 24.0283 147.213 24.1324C147.246 24.2365 147.263 24.3531 147.263 24.4821V24.6445C147.263 24.8943 147.213 25.0734 147.117 25.1858C147.022 25.2982 146.834 25.3565 146.564 25.3565H145.27V25.9519H146.805C147.242 25.9519 147.55 25.8561 147.729 25.6605C147.908 25.4689 148 25.165 148 24.7486V24.3364C148 24.1449 147.966 23.97 147.908 23.8118Z" fill="white"/>
<defs>
<linearGradient id="paint0_linear_648_739" x1="3.39152" y1="32.9918" x2="57.9052" y2="8.10133" gradientUnits="userSpaceOnUse">
<stop stop-color="#FF004F"/>
<stop offset="1" stop-color="#007EFF"/>
</linearGradient>
</defs>
</svg>
